<svg id="visual" viewBox="0 0 900 600" width="900" height="600" xmlns="http://www.w3.org/2000/svg" xmlns:xlink="http://www.w3.org/1999/xlink" version="1.1"><rect x="0" y="0" width="900" height="600" fill="#140021"></rect><path d="M0 374L129 374L129 336L257 336L257 305L386 305L386 359L514 359L514 266L643 266L643 382L771 382L771 302L900 302L900 318L900 601L900 601L771 601L771 601L643 601L643 601L514 601L514 601L386 601L386 601L257 601L257 601L129 601L129 601L0 601Z" fill="#9900ff"></path><path d="M0 453L129 453L129 387L257 387L257 378L386 378L386 362L514 362L514 450L643 450L643 365L771 365L771 391L900 391L900 445L900 601L900 601L771 601L771 601L643 601L643 601L514 601L514 601L386 601L386 601L257 601L257 601L129 601L129 601L0 601Z" fill="#7700c6"></path><path d="M0 478L129 478L129 478L257 478L257 513L386 513L386 539L514 539L514 526L643 526L643 515L771 515L771 487L900 487L900 450L900 601L900 601L771 601L771 601L643 601L643 601L514 601L514 601L386 601L386 601L257 601L257 601L129 601L129 601L0 601Z" fill="#560090"></path></svg>